<svg version="1.1" id="Capa_1" xmlns="http://www.w3.org/2000/svg" xmlns:xlink="http://www.w3.org/1999/xlink" x="0px" y="0px" width="48px" height="48px" viewBox="0 0 48 48" style="enable-background:new 0 0 94.926 94.926;" xml:space="preserve"><g><path d="M28.282 24L47.686 4.596c0.418 -0.418 0.418 -1.096 0 -1.514L44.919 0.314C44.718 0.113 44.445 0 44.162 0c-0.284 0 -0.557 0.113 -0.757 0.314L24 19.718L4.596 0.314c-0.402 -0.402 -1.113 -0.401 -1.514 0L0.315 3.082c-0.418 0.418 -0.418 1.096 0 1.514l19.404 19.404L0.315 43.404c-0.418 0.418 -0.418 1.096 0 1.514l2.767 2.769c0.201 0.2 0.473 0.314 0.757 0.314s0.556 -0.113 0.757 -0.314l19.404 -19.404l19.404 19.404c0.201 0.2 0.474 0.314 0.757 0.314s0.557 -0.113 0.757 -0.314l2.767 -2.769c0.418 -0.418 0.418 -1.096 0 -1.514L28.282 24z"/></g></svg>