<svg version="1.1" fill="#23272a" xmlns="http://www.w3.org/2000/svg" viewBox="0 0 48 48" xmlns:xlink="http://www.w3.org/1999/xlink" enable-background="new 0 0 512 512" width="48" height="48"><g><g><path d="M45.056 32.006c-1.059 0 -1.912 0.853 -1.912 1.912v9.225H4.856v-9.225c0 -1.059 -0.853 -1.912 -1.912 -1.912c-1.059 0 -1.912 0.853 -1.912 1.912v11.137c0 1.059 0.853 1.912 1.912 1.912h42.112c1.059 0 1.912 -0.853 1.912 -1.912V33.919C46.969 32.859 46.116 32.006 45.056 32.006z"/><path d="m22.594 34.275c1.078 1.087 2.4 0.488 2.803 0l10.997 -11.831c0.722 -0.778 0.675 -1.987 -0.103 -2.709 -0.778 -0.722 -1.987 -0.675 -2.7 0.103l-7.678 8.259v-24.862c0 -1.059 -0.853 -1.912 -1.912 -1.912 -1.059 0 -1.912 0.853 -1.912 1.912v24.872l-7.678 -8.259c-0.722 -0.778 -1.931 -0.816 -2.709 -0.103 -0.778 0.722 -0.816 1.931 -0.103 2.709l10.997 11.822z"/></g></g></svg>